PathFileType	4	(X/Y/Z)	/Users/itak/Documents/Research/Walk-IL/dataset/trc/00153_00007.trc
DataRate	CameraRate	NumFrames	NumMarkers	Units	OrigDataRate	OrigDataStartFrame	OrigNumFrames
100.000000	100.000000	4	53	mm	100.000000	131	525
Frame#	Time	RPSI			LPSI			L3			STRN			T10			C7			CLAV			RBAK			LBAK			LSHO			LUPA			LAEL			LAOL			LWTS			LWPS			LFRA			LIFD			LHPS			LHTS			RSHO			RUPA			RAEL			RAOL			RWTS			RWPS			RFRA			RIFD			RHTS			RHPS			RBHD			LFHD			RFHD			LBHD			LHIP			RHIP			RASI			LASI			LKNE			LTHI			LANK			LTIP			LTOE			LMT1			LMT5			LHEE			RKNE			RTHI			RANK			RTIP			RTOE			RMT1			RMT5			RHEE			
		X1	Y1	Z1	X2	Y2	Z2	X3	Y3	Z3	X4	Y4	Z4	X5	Y5	Z5	X6	Y6	Z6	X7	Y7	Z7	X8	Y8	Z8	X9	Y9	Z9	X10	Y10	Z10	X11	Y11	Z11	X12	Y12	Z12	X13	Y13	Z13	X14	Y14	Z14	X15	Y15	Z15	X16	Y16	Z16	X17	Y17	Z17	X18	Y18	Z18	X19	Y19	Z19	X20	Y20	Z20	X21	Y21	Z21	X22	Y22	Z22	X23	Y23	Z23	X24	Y24	Z24	X25	Y25	Z25	X26	Y26	Z26	X27	Y27	Z27	X28	Y28	Z28	X29	Y29	Z29	X30	Y30	Z30	X31	Y31	Z31	X32	Y32	Z32	X33	Y33	Z33	X34	Y34	Z34	X35	Y35	Z35	X36	Y36	Z36	X37	Y37	Z37	X38	Y38	Z38	X39	Y39	Z39	X40	Y40	Z40	X41	Y41	Z41	X42	Y42	Z42	X43	Y43	Z43	X44	Y44	Z44	X45	Y45	Z45	X46	Y46	Z46	X47	Y47	Z47	X48	Y48	Z48	X49	Y49	Z49	X50	Y50	Z50	X51	Y51	Z51	X52	Y52	Z52	X53	Y53	Z53	

132	1.31	-1346.657104492188	1120.238647460938	-585.8267211914062	-1348.47998046875	1125.263671875	-721.478271484375	-1352.010009765625	1162.969848632812	-658.3934936523438	-1114.49853515625	1340.027099609375	-664.7607421875	-1370.347045898438	1318.128540039062	-663.6139526367188	-1300.317016601562	1604.376586914062	-682.3074340820312	-1133.27099609375	1478.365478515625	-669.5557861328125	-1378.451904296875	1429.386474609375	-592.2567138671875	-1307.275756835938	1584.054931640625	-784.7042236328125	-1221.737182617188	1558.636962890625	-850.9692993164062	-1251.597778320312	1428.593994140625	-919.75146484375	-1251.4248046875	1206.172485351562	-936.25341796875	-1324.528564453125	1202.066040039062	-888.3884887695312	-1184.688842773438	942.1735229492188	-871.2429809570312	-1261.326782226562	923.1663818359375	-910.068115234375	-1244.803466796875	1088.707763671875	-934.7420043945312	-1192.667602539062	750.5296630859375	-842.1505737304688	-1239.337158203125	846.197265625	-903.607666015625	-1175.597290039062	852.807861328125	-876.478759765625	-1251.251953125	1581.962036132812	-499.5792846679688	-1277.2490234375	1511.799438476562	-435.4913635253906	-1314.026733398438	1218.62646484375	-407.8204650878906	-1320.83837890625	1216.649291992188	-504.3798522949219	-1180.190673828125	969.9619750976562	-419.5118103027344	-1254.686767578125	956.221923828125	-386.7525939941406	-1293.97314453125	1144.415893554688	-390.8902282714844	-1162.211547851562	775.2422485351562	-434.4801635742188	-1154.75537109375	861.257080078125	-412.5809326171875	-1221.4814453125	855.5359497070312	-381.5570678710938	-1264.748046875	1755.144287109375	-600.0064086914062	-1103.564575195312	1835.859252929688	-726.3667602539062	-1106.635131835938	1835.294677734375	-596.6160888671875	-1269.647583007812	1758.913940429688	-735.3480834960938	-1267.2021484375	1029.381103515625	-832.03271484375	-1216.706298828125	1020.738586425781	-471.8838500976562	-1137.361206054688	1088.718872070312	-530.4037475585938	-1153.300537109375	1085.859619140625	-796.5590209960938	-1265.328369140625	525.0054931640625	-779.361083984375	-1280.497192382812	671.4331665039062	-815.5189819335938	-1399.2119140625	32.12315368652344	-736.4302978515625	-1376.241455078125	283.0547180175781	-788.1434936523438	-1168.256469726562	37.82411956787109	-680.96044921875	-1248.75	42.39736175537109	-648.7073364257812	-1275.7568359375	31.47022438049316	-765.2933959960938	-1466.552734375	33.34934616088867	-673.8250732421875	-1076.478515625	547.9806518554688	-515.1139526367188	-1143.721923828125	820.5381469726562	-488.0892333984375	-1365.40283203125	101.3728790283203	-476.9313659667969	-1142.991088867188	424.5736694335938	-490.8575134277344	-1150.881713867188	53.24738693237305	-526.1220092773438	-1207.72412109375	47.48801422119141	-571.4158935546875	-1243.118530273438	56.06930160522461	-457.51806640625	-1418.048828125	124.712890625	-525.6076049804688	
133	1.32	-1344.98388671875	1120.259765625	-586.2698364257812	-1346.915893554688	1125.20703125	-721.9561767578125	-1350.496215820312	1163.1845703125	-658.9874267578125	-1112.0126953125	1339.559692382812	-665.7501220703125	-1368.005126953125	1318.473022460938	-664.4746704101562	-1296.784545898438	1604.453735351562	-683.4612426757812	-1130.286499023438	1477.91796875	-670.5838623046875	-1375.6220703125	1429.81591796875	-593.3076782226562	-1303.770385742188	1584.103759765625	-785.8712158203125	-1218.243774414062	1558.347045898438	-852.0541381835938	-1248.413452148438	1428.38916015625	-920.8485717773438	-1248.888427734375	1205.963989257812	-937.4307861328125	-1322.07958984375	1202.082641601562	-889.7315673828125	-1183.114135742188	941.7706909179688	-872.2581787109375	-1259.585205078125	922.97412109375	-911.2634887695312	-1242.64111328125	1088.480590820312	-935.9111328125	-1191.754760742188	750.15234375	-843.1900024414062	-1237.980712890625	845.927734375	-904.7535400390625	-1174.374267578125	852.3448486328125	-877.4635620117188	-1247.835571289062	1581.946044921875	-500.6656188964844	-1274.159790039062	1511.902099609375	-436.5896911621094	-1312.24365234375	1218.859497070312	-409.0771789550781	-1318.8720703125	1216.937133789062	-505.6558227539062	-1179.30029296875	969.7564086914062	-420.5458984375	-1253.899047851562	956.2263793945312	-387.9470520019531	-1292.529174804688	1144.564331054688	-392.1322021484375	-1161.865234375	774.956298828125	-435.4592590332031	-1154.139892578125	861.0015258789062	-413.547119140625	-1221.0126953125	855.4347534179688	-382.6917724609375	-1261.195068359375	1754.709350585938	-601.1886596679688	-1099.968383789062	1835.603881835938	-727.389892578125	-1103.183227539062	1835.029296875	-597.6550903320312	-1265.973999023438	1758.499267578125	-736.5736694335938	-1265.942504882812	1029.126342773438	-832.5773315429688	-1214.720703125	1020.965454101562	-472.4205932617188	-1135.521728515625	1088.683837890625	-531.3114624023438	-1151.755004882812	1085.400390625	-797.4144897460938	-1264.923706054688	524.819091796875	-779.7562866210938	-1279.880615234375	671.2532958984375	-815.9124145507812	-1399.263793945312	32.08121109008789	-736.43310546875	-1376.235229492188	283.0731811523438	-788.2128295898438	-1168.317626953125	37.85072708129883	-681.0509643554688	-1248.820678710938	42.44207000732422	-648.7762451171875	-1275.769165039062	31.41166114807129	-765.3856811523438	-1466.589965820312	33.38899993896484	-673.7990112304688	-1067.968872070312	550.4614868164062	-516.908447265625	-1139.296264648438	821.9552612304688	-488.9945373535156	-1356.869995117188	103.6741180419922	-478.9869689941406	-1134.059326171875	426.6903991699219	-493.0277099609375	-1142.780029296875	55.47012329101562	-529.2620239257812	-1199.922729492188	49.5932502746582	-574.370849609375	-1234.662841796875	58.16926193237305	-460.1919250488281	-1409.6630859375	127.1553115844727	-527.3916625976562	
134	1.33	-1343.119384765625	1120.3134765625	-586.7095336914062	-1345.159790039062	1125.150146484375	-722.4315795898438	-1348.772705078125	1163.375854492188	-659.5728759765625	-1109.38720703125	1339.1259765625	-666.701171875	-1365.527587890625	1318.785766601562	-665.3179931640625	-1293.192993164062	1604.512329101562	-684.5855102539062	-1127.279052734375	1477.455932617188	-671.5846557617188	-1372.685424804688	1430.220825195312	-594.324462890625	-1300.198486328125	1584.123657226562	-786.9987182617188	-1214.6904296875	1558.040405273438	-853.1019287109375	-1245.162841796875	1428.163940429688	-921.9008178710938	-1246.25341796875	1205.7392578125	-938.5546875	-1319.538330078125	1202.078247070312	-891.0169677734375	-1181.43017578125	941.3471069335938	-873.2329711914062	-1257.7373046875	922.7703857421875	-912.4222412109375	-1240.385375976562	1088.238647460938	-937.0321044921875	-1190.746704101562	749.7623291015625	-844.2116088867188	-1236.530029296875	845.6516723632812	-905.8721313476562	-1173.06689453125	851.8538208007812	-878.4354248046875	-1244.353271484375	1581.935791015625	-501.7213134765625	-1270.994995117188	1512.015380859375	-437.6494750976562	-1310.33544921875	1219.1025390625	-410.2863159179688	-1316.80712890625	1217.237670898438	-506.8805236816406	-1178.367553710938	969.5155639648438	-421.5941772460938	-1253.05322265625	956.2351684570312	-389.1130981445312	-1290.974975585938	1144.724853515625	-393.3395690917969	-1161.58154296875	774.6131591796875	-436.4903259277344	-1153.521484375	860.7188720703125	-414.5666809082031	-1220.519287109375	855.3150024414062	-383.8166198730469	-1257.547729492188	1754.3173828125	-602.3433227539062	-1096.263671875	1835.329956054688	-728.4049682617188	-1099.615356445312	1834.755615234375	-598.6841430664062	-1262.211059570312	1758.103271484375	-737.7713623046875	-1264.471069335938	1028.8515625	-833.0869140625	-1212.575073242188	1021.24560546875	-472.9177856445312	-1133.498168945312	1088.673217773438	-532.1755981445312	-1150.016479492188	1084.953369140625	-798.215087890625	-1264.39111328125	524.6329345703125	-780.1148681640625	-1279.112060546875	671.0707397460938	-816.2459106445312	-1399.311157226562	32.04506683349609	-736.4332275390625	-1376.203125	283.0973205566406	-788.237060546875	-1168.362426757812	37.87736511230469	-681.1463623046875	-1248.917236328125	42.4697151184082	-648.8452758789062	-1275.7734375	31.35139656066895	-765.4772338867188	-1466.625854492188	33.45219421386719	-673.7711181640625	-1059.82763671875	552.9339599609375	-518.6023559570312	-1134.973876953125	823.3624267578125	-489.8203430175781	-1347.289428710938	105.0794830322266	-481.2893981933594	-1125.296020507812	428.6744384765625	-495.1336669921875	-1133.272338867188	57.70002746582031	-532.6470336914062	-1190.826171875	51.58766174316406	-577.55517578125	-1224.86328125	60.04223251342773	-463.0820617675781	-1400.372924804688	128.4827575683594	-529.447265625	
135	1.34	-1341.07763671875	1120.387084960938	-587.1578369140625	-1343.212280273438	1125.088134765625	-722.9148559570312	-1346.8369140625	1163.54541015625	-660.1591796875	-1106.616821289062	1338.724243164062	-667.6084594726562	-1362.9052734375	1319.063842773438	-666.14990234375	-1289.541259765625	1604.551391601562	-685.6795043945312	-1124.24072265625	1476.98779296875	-672.5634765625	-1369.636474609375	1430.598266601562	-595.3074340820312	-1296.562133789062	1584.116943359375	-788.0870361328125	-1211.075439453125	1557.724853515625	-854.114990234375	-1241.843505859375	1427.92578125	-922.9104614257812	-1243.515380859375	1205.50634765625	-939.621337890625	-1316.898315429688	1202.062377929688	-892.2365112304688	-1179.637329101562	940.9075317382812	-874.1676635742188	-1255.803955078125	922.564453125	-913.5428466796875	-1238.031616210938	1087.990356445312	-938.1012573242188	-1189.633056640625	749.3593139648438	-845.2169799804688	-1234.987670898438	845.374755859375	-906.9622192382812	-1171.673583984375	851.336669921875	-879.3997192382812	-1240.80322265625	1581.932250976562	-502.7465209960938	-1267.745239257812	1512.13818359375	-438.6713562011719	-1308.294921875	1219.35888671875	-411.4496459960938	-1314.627685546875	1217.55419921875	-508.0562133789062	-1177.383544921875	969.2372436523438	-422.6441955566406	-1252.143798828125	956.2513427734375	-390.2474365234375	-1289.298706054688	1144.900390625	-394.5095520019531	-1161.375122070312	774.1996459960938	-437.5718994140625	-1152.916015625	860.39599609375	-415.6315307617188	-1220.004760742188	855.180419921875	-384.9313659667969	-1253.807739257812	1753.969116210938	-603.4683837890625	-1092.44921875	1835.03662109375	-729.4115600585938	-1095.927734375	1834.474609375	-599.7001953125	-1258.358764648438	1757.727783203125	-738.9357299804688	-1262.78173828125	1028.558471679688	-833.567626953125	-1210.29248046875	1021.566040039062	-473.3857727050781	-1131.3076171875	1088.680297851562	-532.9912109375	-1148.086181640625	1084.513549804688	-798.9615478515625	-1263.719482421875	524.44091796875	-780.4473266601562	-1278.183837890625	670.8861083984375	-816.519775390625	-1399.354248046875	32.01455307006836	-736.4306640625	-1376.136352539062	283.127197265625	-788.2239379882812	-1168.390258789062	37.90530014038086	-681.2495727539062	-1249.042602539062	42.47854614257812	-648.9158325195312	-1275.769775390625	31.28680038452148	-765.5694580078125	-1466.656616210938	33.53887939453125	-673.7406616210938	-1052.052490234375	555.3684692382812	-520.2049560546875	-1130.770263671875	824.7369995117188	-490.5878601074219	-1336.704345703125	105.5964813232422	-483.8226013183594	-1116.671875	430.49609375	-497.1633911132812	-1122.432006835938	59.85428619384766	-536.0721435546875	-1180.416625976562	53.3843994140625	-580.8147583007812	-1213.832641601562	61.62103271484375	-466.0707702636719	-1390.189697265625	128.7254180908203	-531.8126220703125	
